<?xml version="1.0" standalone="no"?>
<!DOCTYPE svg PUBLIC "-//W3C//DTD SVG 20010904//EN"
        "http://www.w3.org/TR/2001/REC-SVG-20010904/DTD/svg10.dtd">
<svg version="1.0" xmlns="http://www.w3.org/2000/svg"
     width="512.000000pt" height="512.000000pt" viewBox="0 0 512.000000 512.000000"
     preserveAspectRatio="xMidYMid meet">

    <g transform="translate(0.000000,512.000000) scale(0.100000,-0.100000)"
       fill="#000000" stroke="none">
        <path d="M985 4756 c-69 -18 -97 -31 -158 -69 -75 -49 -141 -121 -182 -199
-65 -122 -65 -123 -65 -935 0 -520 -3 -733 -11 -733 -6 0 -45 -14 -87 -30
-171 -69 -315 -201 -396 -362 -83 -167 -80 -135 -84 -821 -3 -602 -3 -609 18
-652 16 -32 33 -49 64 -64 39 -19 61 -21 269 -21 l226 0 3 -209 c3 -194 5
-212 24 -238 72 -97 186 -97 258 0 19 26 21 44 24 238 l3 209 1669 0 1669 0 3
-209 c3 -194 5 -212 24 -238 72 -97 186 -97 258 0 19 26 21 44 24 238 l3 209
226 0 c208 0 230 2 269 21 31 15 48 32 64 64 21 43 21 50 18 652 -4 686 -1
654 -84 821 -81 161 -225 293 -396 362 -42 16 -81 30 -87 30 -8 0 -11 213 -11
733 0 812 0 813 -65 935 -60 114 -173 211 -300 258 -48 18 -117 19 -1595 21
-1230 1 -1555 -1 -1595 -11z m3073 -297 c61 -13 127 -66 153 -123 17 -39 19
-83 19 -768 l0 -728 -249 0 -249 0 -5 183 c-3 148 -8 196 -26 257 -73 246
-258 430 -506 502 -79 23 -85 23 -635 23 -550 0 -556 0 -635 -23 -248 -72
-433 -256 -506 -502 -18 -61 -23 -109 -26 -257 l-5 -183 -249 0 -249 0 0 728
c0 685 2 729 19 768 24 52 93 111 145 123 60 13 2941 14 3004 0z m-931 -977
c133 -42 228 -135 274 -270 16 -45 19 -84 19 -214 l0 -158 -860 0 -860 0 0
158 c0 130 3 169 19 214 46 134 140 227 271 269 50 16 106 18 567 18 468 1
516 -1 570 -17z m1307 -952 c163 -27 301 -144 356 -305 19 -55 20 -84 20 -552
l0 -493 -2250 0 -2250 0 0 493 c0 468 1 497 20 552 54 156 193 279 347 305 70
11 3685 12 3757 0z"/>
    </g>
</svg>
